<?xml version="1.0" standalone="no"?>
<svg xmlns:xlink="http://www.w3.org/1999/xlink" id="wave" style="transform:rotate(180deg); transition: 0.3s" viewBox="0 0 1440 490" version="1.1" xmlns="http://www.w3.org/2000/svg"><defs><linearGradient id="sw-gradient-0" x1="0" x2="0" y1="1" y2="0"><stop stop-color="rgba(243, 106, 62, 1)" offset="0%"/><stop stop-color="rgba(255, 179, 11, 1)" offset="100%"/></linearGradient></defs><path style="transform:translate(0, 0px); opacity:1" fill="url(#sw-gradient-0)" d="M0,147L26.7,147C53.3,147,107,147,160,196C213.3,245,267,343,320,367.5C373.3,392,427,343,480,294C533.3,245,587,196,640,171.5C693.3,147,747,147,800,171.5C853.3,196,907,245,960,236.8C1013.3,229,1067,163,1120,130.7C1173.3,98,1227,98,1280,138.8C1333.3,180,1387,261,1440,310.3C1493.3,359,1547,376,1600,383.8C1653.3,392,1707,392,1760,383.8C1813.3,376,1867,359,1920,326.7C1973.3,294,2027,245,2080,204.2C2133.3,163,2187,131,2240,122.5C2293.3,114,2347,131,2400,171.5C2453.3,212,2507,278,2560,253.2C2613.3,229,2667,114,2720,73.5C2773.3,33,2827,65,2880,89.8C2933.3,114,2987,131,3040,138.8C3093.3,147,3147,147,3200,196C3253.3,245,3307,343,3360,326.7C3413.3,310,3467,180,3520,106.2C3573.3,33,3627,16,3680,16.3C3733.3,16,3787,33,3813,40.8L3840,49L3840,490L3813.3,490C3786.7,490,3733,490,3680,490C3626.7,490,3573,490,3520,490C3466.7,490,3413,490,3360,490C3306.7,490,3253,490,3200,490C3146.7,490,3093,490,3040,490C2986.7,490,2933,490,2880,490C2826.7,490,2773,490,2720,490C2666.7,490,2613,490,2560,490C2506.7,490,2453,490,2400,490C2346.7,490,2293,490,2240,490C2186.7,490,2133,490,2080,490C2026.7,490,1973,490,1920,490C1866.7,490,1813,490,1760,490C1706.7,490,1653,490,1600,490C1546.7,490,1493,490,1440,490C1386.7,490,1333,490,1280,490C1226.7,490,1173,490,1120,490C1066.7,490,1013,490,960,490C906.7,490,853,490,800,490C746.7,490,693,490,640,490C586.7,490,533,490,480,490C426.7,490,373,490,320,490C266.7,490,213,490,160,490C106.7,490,53,490,27,490L0,490Z"/></svg>